<?xml version="1.0" encoding="UTF-8" standalone="no"?>
<!DOCTYPE svg PUBLIC "-//W3C//DTD SVG 1.1//EN" "http://www.w3.org/Graphics/SVG/1.1/DTD/svg11.dtd">
<svg width="1280" height="720" xmlns:xlink="http://www.w3.org/1999/xlink" xmlns="http://www.w3.org/2000/svg">
    <rect class="background" width="1280" height="720" fill="white" stroke="black" stroke-width="20px"/>
    <defs>
        <path id="subtitlePath" d="M 300 20 C 400 120, 700 30, 900 70"/>
    </defs>
    <use xlink:href="#subtitlePath" fill="none"/>
    <text x="200" y="70" font-size="40px">
        <textPath xlink:href="#subtitlePath">Monuments Database</textPath>
    </text>
    <rect width="750" height="580" x="40" y="100" fill="white" stroke="black" stroke-width="10px"/>
    <text font-size="30px" x="70" y="134.5">Nr:</text>
    <text font-size="30px" x="220" y="134.5">Name:</text>
    <text font-size="30px" x="470" y="134.5">Population:</text>
    <line id="borderLine" stroke="black" stroke-width="5px" x1="40" y1="144.5" x2="790" y2="144.5"/>
    <text font-size="20px" x="70" y="175.5">1</text>
    <text id="1" onclick="click(evt)" font-size="20px" x="220" y="175.5">Paris</text>
    <text id="1" onclick="click(evt)" font-size="20px" x="470" y="175.5">2206488</text>
    <line id="borderLine" stroke="black" stroke-width="5px" x1="40" y1="189" x2="790" y2="189"/>
    <line id="borderLine" stroke="black" stroke-width="5px" x1="40" y1="189" x2="790" y2="189"/>
    <text font-size="20px" x="70" y="220">2</text>
    <text id="2" onclick="click(evt)" font-size="20px" x="220" y="220">Rome</text>
    <text id="2" onclick="click(evt)" font-size="20px" x="470" y="220">4355725</text>
    <line id="borderLine" stroke="black" stroke-width="5px" x1="40" y1="233.5" x2="790" y2="233.5"/>
    <line id="borderLine" stroke="black" stroke-width="5px" x1="40" y1="233.5" x2="790" y2="233.5"/>
    <text font-size="20px" x="70" y="264.5">3</text>
    <text id="3" onclick="click(evt)" font-size="20px" x="220" y="264.5">Berlin</text>
    <text id="3" onclick="click(evt)" font-size="20px" x="470" y="264.5">3711930</text>
    <line id="borderLine" stroke="black" stroke-width="5px" x1="40" y1="278" x2="790" y2="278"/>
    <line id="borderLine" stroke="black" stroke-width="5px" x1="40" y1="278" x2="790" y2="278"/>
    <text font-size="20px" x="70" y="309">4</text>
    <text id="4" onclick="click(evt)" font-size="20px" x="220" y="309">Pisa</text>
    <text id="4" onclick="click(evt)" font-size="20px" x="470" y="309">91104</text>
    <line id="borderLine" stroke="black" stroke-width="5px" x1="40" y1="322.5" x2="790" y2="322.5"/>
    <line id="borderLine" stroke="black" stroke-width="5px" x1="40" y1="322.5" x2="790" y2="322.5"/>
    <text font-size="20px" x="70" y="353.5">5</text>
    <text id="5" onclick="click(evt)" font-size="20px" x="220" y="353.5">London</text>
    <text id="5" onclick="click(evt)" font-size="20px" x="470" y="353.5">8825000</text>
    <line id="borderLine" stroke="black" stroke-width="5px" x1="40" y1="367" x2="790" y2="367"/>
    <line id="borderLine" stroke="black" stroke-width="5px" x1="40" y1="367" x2="790" y2="367"/>
    <text font-size="20px" x="70" y="398">6</text>
    <text id="6" onclick="click(evt)" font-size="20px" x="220" y="398">Florence</text>
    <text id="6" onclick="click(evt)" font-size="20px" x="470" y="398">383083</text>
    <line id="borderLine" stroke="black" stroke-width="5px" x1="40" y1="411.5" x2="790" y2="411.5"/>
    <line id="borderLine" stroke="black" stroke-width="5px" x1="40" y1="411.5" x2="790" y2="411.5"/>
    <text font-size="20px" x="70" y="442.5">7</text>
    <text id="7" onclick="click(evt)" font-size="20px" x="220" y="442.5">Warsaw</text>
    <text id="7" onclick="click(evt)" font-size="20px" x="470" y="442.5">1764615</text>
    <line id="borderLine" stroke="black" stroke-width="5px" x1="40" y1="456" x2="790" y2="456"/>
    <line id="borderLine" stroke="black" stroke-width="5px" x1="40" y1="456" x2="790" y2="456"/>
    <text font-size="20px" x="70" y="487">8</text>
    <text id="8" onclick="click(evt)" font-size="20px" x="220" y="487">Wroclaw</text>
    <text id="8" onclick="click(evt)" font-size="20px" x="470" y="487">639258</text>
    <line id="borderLine" stroke="black" stroke-width="5px" x1="40" y1="500.5" x2="790" y2="500.5"/>
    <line id="borderLine" stroke="black" stroke-width="5px" x1="40" y1="500.5" x2="790" y2="500.5"/>
    <text font-size="20px" x="70" y="531.5">9</text>
    <text id="9" onclick="click(evt)" font-size="20px" x="220" y="531.5">Lodz</text>
    <text id="9" onclick="click(evt)" font-size="20px" x="470" y="531.5">639258</text>
    <line id="borderLine" stroke="black" stroke-width="5px" x1="40" y1="545" x2="790" y2="545"/>
    <line id="borderLine" stroke="black" stroke-width="5px" x1="40" y1="545" x2="790" y2="545"/>
    <text font-size="20px" x="70" y="576">10</text>
    <text id="10" onclick="click(evt)" font-size="20px" x="220" y="576">Gdansk</text>
    <text id="10" onclick="click(evt)" font-size="20px" x="470" y="576">464254</text>
    <line id="borderLine" stroke="black" stroke-width="5px" x1="40" y1="589.5" x2="790" y2="589.5"/>
    <line id="borderLine" stroke="black" stroke-width="5px" x1="40" y1="589.5" x2="790" y2="589.5"/>
    <text font-size="20px" x="70" y="620.5">11</text>
    <text id="11" onclick="click(evt)" font-size="20px" x="220" y="620.5">Rio de Janeiro</text>
    <text id="11" onclick="click(evt)" font-size="20px" x="470" y="620.5">6688930</text>
    <line id="borderLine" stroke="black" stroke-width="5px" x1="40" y1="634" x2="790" y2="634"/>
    <line id="borderLine" stroke="black" stroke-width="5px" x1="40" y1="634" x2="790" y2="634"/>
    <text font-size="20px" x="70" y="665">12</text>
    <text id="12" onclick="click(evt)" font-size="20px" x="220" y="665">New York</text>
    <text id="12" onclick="click(evt)" font-size="20px" x="470" y="665">8175133</text>
    <line id="borderLine" stroke="black" stroke-width="5px" x1="40" y1="678.5" x2="790" y2="678.5"/>
    <rect width="400" height="300" x="840" y="100" fill="white" stroke="black" stroke-width="10px"/>
    <rect id="rect1" class="rect" width="30.333333333333336" height="86.25" fill="black" x="847" y="303.75"/>
    <rect id="rect2" class="rect" width="30.333333333333336" height="120" fill="black" x="879.3333333333334" y="270"/>
    <rect id="rect3" class="rect" width="30.333333333333336" height="45" fill="black" x="911.6666666666666" y="345"/>
    <rect id="rect4" class="rect" width="30.333333333333336" height="67.5" fill="black" x="944" y="322.5"/>
    <rect id="rect5" class="rect" width="30.333333333333336" height="262.5" fill="black" x="976.3333333333334" y="127.5"/>
    <rect id="rect6" class="rect" width="30.333333333333336" height="150" fill="black" x="1008.6666666666667" y="240"/>
    <rect id="rect7" class="rect" width="30.333333333333336" height="63.75" fill="black" x="1041" y="326.25"/>
    <rect id="rect8" class="rect" width="30.333333333333336" height="168.75" fill="black" x="1073.3333333333333" y="221.25"/>
    <rect id="rect9" class="rect" width="30.333333333333336" height="131.25" fill="black" x="1105.6666666666667" y="258.75"/>
    <rect id="rect10" class="rect" width="30.333333333333336" height="82.5" fill="black" x="1138" y="307.5"/>
    <rect id="rect11" class="rect" width="30.333333333333336" height="82.5" fill="black" x="1170.3333333333335" y="307.5"/>
    <rect id="rect12" class="rect" width="30.333333333333336" height="75" fill="black" x="1202.6666666666667" y="315"/>
    <script type="text/javascript">
			

				var bars = document.querySelectorAll(".rect");
                    for(var i=0; i &lt; bars.length; i++) {
                        bars[i].setAttribute("opacity", "0.5");
                    }

				function click(evt) {
					var clickedID = evt.target.id;

                    for(var i = 0; i &lt; bars.length; i++) {
                        bars[i].setAttribute("opacity", "0.5");
                    }

                    var currO = 0.5;

                    var id = setInterval(frame, 10);
                    function frame() {
                        if (currO &gt;= 1.0) {
                            clearInterval(id);
                        } else {
	                        currO = currO + 0.01;
	                        bars[clickedID - 1].setAttribute("opacity", currO);
                        }
                    }
				}
			
		</script>
    <rect width="400" height="230" x="840" y="450" fill="white" stroke="black" stroke-width="10px"/>
    <text font-size="40px" x="925" y="500">SUMMARY:</text>
    l
			
    <text font-size="20px" x="855" y="555">sumPopulation:
			</text>
    <text font-size="20px" x="1050" y="555">37944778</text>
    l
			
    <text font-size="20px" x="855" y="575">avgPopulation:
			</text>
    <text font-size="20px" x="1050" y="575">3162065</text>
    l
			
    <text font-size="20px" x="855" y="595">sumCosts:
			</text>
    <text font-size="20px" x="1050" y="595">90273481000</text>
    l
			
    <text font-size="20px" x="855" y="615">avgCosts:
			</text>
    <text font-size="20px" x="1050" y="615">6532250</text>
    l
			
    <text font-size="20px" x="855" y="635">reportGenerationDate:
			</text>
    <text font-size="20px" x="1050" y="635">11.12.2018, 10:31 a.m.</text>
</svg>
